<svg xmlns="http://www.w3.org/2000/svg" xmlns:xlink="http://www.w3.org/1999/xlink" width="106" zoomAndPan="magnify" viewBox="0 0 79.5 30.000001" height="40" preserveAspectRatio="xMidYMid meet" version="1.2"><defs/><g id="67fea86cc7"><g style="fill:#670000;fill-opacity:1;"><g transform="translate(7.852754, 24.010544)"><path style="stroke:none" d="M 11.65625 -20.078125 L 19.75 0 L 14.84375 0 L 13.359375 -4.015625 L 5.71875 -4.015625 L 4.234375 0 L -0.6875 0 L 7.421875 -20.078125 Z M 11.796875 -8.03125 L 9.5625 -13.859375 L 9.515625 -13.859375 L 7.28125 -8.03125 Z M 11.796875 -8.03125 "/></g></g><g style="fill:#670000;fill-opacity:1;"><g transform="translate(26.930937, 24.010544)"><path style="stroke:none" d="M 1.453125 0 L 1.453125 -12.484375 L 5.765625 -12.484375 L 5.765625 -11.171875 L 5.8125 -11.171875 C 6.9375 -12.285156 8.128906 -12.84375 9.390625 -12.84375 C 10.003906 -12.84375 10.613281 -12.757812 11.21875 -12.59375 C 11.832031 -12.4375 12.414062 -12.1875 12.96875 -11.84375 C 13.53125 -11.507812 13.984375 -11.03125 14.328125 -10.40625 C 14.679688 -9.78125 14.859375 -9.050781 14.859375 -8.21875 L 14.859375 0 L 10.5625 0 L 10.5625 -7.0625 C 10.5625 -7.707031 10.351562 -8.269531 9.9375 -8.75 C 9.519531 -9.238281 8.976562 -9.484375 8.3125 -9.484375 C 7.664062 -9.484375 7.078125 -9.234375 6.546875 -8.734375 C 6.023438 -8.234375 5.765625 -7.675781 5.765625 -7.0625 L 5.765625 0 Z M 1.453125 0 "/></g></g><g style="fill:#670000;fill-opacity:1;"><g transform="translate(43.015985, 24.010544)"><path style="stroke:none" d="M 1.875 -19.4375 C 2.375 -19.9375 2.972656 -20.1875 3.671875 -20.1875 C 4.367188 -20.1875 4.96875 -19.9375 5.46875 -19.4375 C 5.976562 -18.9375 6.234375 -18.335938 6.234375 -17.640625 C 6.234375 -16.941406 5.976562 -16.335938 5.46875 -15.828125 C 4.96875 -15.328125 4.367188 -15.078125 3.671875 -15.078125 C 2.972656 -15.078125 2.375 -15.328125 1.875 -15.828125 C 1.375 -16.335938 1.125 -16.941406 1.125 -17.640625 C 1.125 -18.335938 1.375 -18.9375 1.875 -19.4375 Z M 1.453125 -12.484375 L 1.453125 0 L 5.765625 0 L 5.765625 -12.484375 Z M 1.453125 -12.484375 "/></g></g><g style="fill:#670000;fill-opacity:1;"><g transform="translate(50.364975, 24.010544)"><path style="stroke:none" d="M 6.890625 -12.84375 C 7.597656 -12.84375 8.300781 -12.757812 9 -12.59375 C 9.695312 -12.4375 10.21875 -12.273438 10.5625 -12.109375 L 11.0625 -11.875 L 9.65625 -9.046875 C 8.6875 -9.566406 7.765625 -9.828125 6.890625 -9.828125 C 6.398438 -9.828125 6.050781 -9.773438 5.84375 -9.671875 C 5.644531 -9.566406 5.546875 -9.367188 5.546875 -9.078125 C 5.546875 -9.015625 5.550781 -8.945312 5.5625 -8.875 C 5.582031 -8.8125 5.613281 -8.75 5.65625 -8.6875 C 5.707031 -8.632812 5.753906 -8.585938 5.796875 -8.546875 C 5.835938 -8.503906 5.90625 -8.457031 6 -8.40625 C 6.101562 -8.363281 6.179688 -8.328125 6.234375 -8.296875 C 6.296875 -8.273438 6.390625 -8.238281 6.515625 -8.1875 C 6.648438 -8.144531 6.75 -8.109375 6.8125 -8.078125 C 6.875 -8.054688 6.984375 -8.019531 7.140625 -7.96875 C 7.296875 -7.925781 7.414062 -7.894531 7.5 -7.875 C 8 -7.726562 8.429688 -7.566406 8.796875 -7.390625 C 9.171875 -7.210938 9.566406 -6.96875 9.984375 -6.65625 C 10.398438 -6.351562 10.71875 -5.96875 10.9375 -5.5 C 11.164062 -5.03125 11.28125 -4.492188 11.28125 -3.890625 C 11.28125 -1.054688 9.3125 0.359375 5.375 0.359375 C 4.476562 0.359375 3.628906 0.222656 2.828125 -0.046875 C 2.023438 -0.328125 1.445312 -0.601562 1.09375 -0.875 L 0.5625 -1.3125 L 2.3125 -4.25 C 2.4375 -4.144531 2.601562 -4.015625 2.8125 -3.859375 C 3.03125 -3.703125 3.414062 -3.488281 3.96875 -3.21875 C 4.519531 -2.957031 5 -2.828125 5.40625 -2.828125 C 6.289062 -2.828125 6.734375 -3.125 6.734375 -3.71875 C 6.734375 -4 6.617188 -4.210938 6.390625 -4.359375 C 6.171875 -4.515625 5.785156 -4.691406 5.234375 -4.890625 C 4.691406 -5.085938 4.269531 -5.265625 3.96875 -5.421875 C 3.1875 -5.828125 2.566406 -6.285156 2.109375 -6.796875 C 1.660156 -7.304688 1.4375 -7.984375 1.4375 -8.828125 C 1.4375 -10.097656 1.925781 -11.082031 2.90625 -11.78125 C 3.882812 -12.488281 5.210938 -12.84375 6.890625 -12.84375 Z M 6.890625 -12.84375 "/></g></g><g style="fill:#670000;fill-opacity:1;"><g transform="translate(62.337511, 24.010544)"><path style="stroke:none" d="M 0 0.359375 L 12.484375 0.359375 L 12.484375 2.4375 L 0 2.4375 Z M 0 0.359375 "/></g></g></g></svg>